HIERARCHY
ROOT Hips
{
	OFFSET 0.000000 0.000000 0.000000
	CHANNELS 6 Xposition Yposition Zposition Xrotation Yrotation Zrotation
	JOINT LeftUpLeg_virtual
	{
		OFFSET 0.000000 0.000000 0.000000
		CHANNELS 3 Xrotation Yrotation Zrotation
		JOINT LeftUpLeg
		{
			OFFSET 11.394100 -6.187798 -0.413800
			CHANNELS 3 Xrotation Yrotation Zrotation
			JOINT LeftLeg
			{
				OFFSET 0.430247 -32.302673 3.732800
				CHANNELS 3 Xrotation Yrotation Zrotation
				JOINT LeftFoot
				{
					OFFSET -0.430247 -48.264931 -6.423300
					CHANNELS 3 Xrotation Yrotation Zrotation
					JOINT LeftToeBase
					{
						OFFSET 4.230900 -16.068199 23.438400
						CHANNELS 3 Xrotation Yrotation Zrotation
						JOINT LeftToe_End
						{
							OFFSET 4.510700 0.695400 19.974600
							CHANNELS 3 Xrotation Yrotation Zrotation
							End Site
							{
								OFFSET 0 0 0
							}
						}
					}
				}
			}
		}
	}
	JOINT RightUpLeg_virtual
	{
		OFFSET 0.000000 0.000000 0.000000
		CHANNELS 3 Xrotation Yrotation Zrotation
		JOINT RightUpLeg
		{
			OFFSET -11.333700 -6.187798 -0.413800
			CHANNELS 3 Xrotation Yrotation Zrotation
			JOINT RightLeg
			{
				OFFSET -0.430392 -32.302628 3.733000
				CHANNELS 3 Xrotation Yrotation Zrotation
				JOINT RightFoot
				{
					OFFSET 0.430392 -48.264973 -6.423500
					CHANNELS 3 Xrotation Yrotation Zrotation
					JOINT RightToeBase
					{
						OFFSET -4.230900 -16.068199 23.438400
						CHANNELS 3 Xrotation Yrotation Zrotation
						JOINT RightToe_End
						{
							OFFSET -4.510700 0.695400 19.974600
							CHANNELS 3 Xrotation Yrotation Zrotation
							End Site
							{
								OFFSET 0 0 0
							}
						}
					}
				}
			}
		}
	}
	JOINT Spine_virtual
	{
		OFFSET 0.000000 0.000000 0.000000
		CHANNELS 3 Xrotation Yrotation Zrotation
		JOINT Spine
		{
			OFFSET -0.002400 12.777504 0.315300
			CHANNELS 3 Xrotation Yrotation Zrotation
			JOINT Spine1
			{
				OFFSET -0.002067 5.816869 0.032633
				CHANNELS 3 Xrotation Yrotation Zrotation
				JOINT Spine1_split
				{
					OFFSET -0.002067 5.816869 0.032633
					CHANNELS 3 Xrotation Yrotation Zrotation
					JOINT Spine2
					{
						OFFSET -0.002067 5.816869 0.032633
						CHANNELS 3 Xrotation Yrotation Zrotation
						JOINT Neck_virtual
						{
							OFFSET 0.000000 0.000000 0.000000
							CHANNELS 3 Xrotation Yrotation Zrotation
							JOINT Neck
							{
								OFFSET -0.003700 21.199493 -0.826900
								CHANNELS 3 Xrotation Yrotation Zrotation
								JOINT Head
								{
									OFFSET 0.000000 20.442200 4.834800
									CHANNELS 3 Xrotation Yrotation Zrotation
									JOINT HeadTop_End
									{
										OFFSET 0.000000 34.668396 4.968400
										CHANNELS 3 Xrotation Yrotation Zrotation
										End Site
										{
											OFFSET 0 0 0
										}
									}
								}
							}
						}
						JOINT LeftShoulder_virtual
						{
							OFFSET 0.000000 0.000000 0.000000
							CHANNELS 3 Xrotation Yrotation Zrotation
							JOINT LeftShoulder
							{
								OFFSET 3.288150 8.794197 -1.372250
								CHANNELS 3 Xrotation Yrotation Zrotation
								JOINT LeftShoulder_split
								{
									OFFSET 3.288150 8.794197 -1.372250
									CHANNELS 3 Xrotation Yrotation Zrotation
									JOINT LeftArm
									{
										OFFSET 11.953299 -2.279007 -0.146200
										CHANNELS 3 Xrotation Yrotation Zrotation
										JOINT LeftForeArm
										{
											OFFSET 18.448900 0.000000 0.000000
											CHANNELS 3 Xrotation Yrotation Zrotation
											JOINT LeftHand
											{
												OFFSET 29.527798 0.000000 0.000000
												CHANNELS 3 Xrotation Yrotation Zrotation
												End Site
												{
													OFFSET 0 0 0
												}
											}
										}
									}
								}
							}
						}
						JOINT RightShoulder_virtual
						{
							OFFSET 0.000000 0.000000 0.000000
							CHANNELS 3 Xrotation Yrotation Zrotation
							JOINT RightShoulder
							{
								OFFSET -3.249400 8.794197 -1.372250
								CHANNELS 3 Xrotation Yrotation Zrotation
								JOINT RightShoulder_split
								{
									OFFSET -3.249400 8.794197 -1.372250
									CHANNELS 3 Xrotation Yrotation Zrotation
									JOINT RightArm
									{
										OFFSET -11.953299 -2.279007 -0.146200
										CHANNELS 3 Xrotation Yrotation Zrotation
										JOINT RightForeArm
										{
											OFFSET -18.448900 0.000000 0.000000
											CHANNELS 3 Xrotation Yrotation Zrotation
											JOINT RightHand
											{
												OFFSET -29.527802 0.000000 0.000000
												CHANNELS 3 Xrotation Yrotation Zrotation
												End Site
												{
													OFFSET 0 0 0
												}
											}
										}
									}
								}
							}
						}
					}
				}
			}
		}
	}
}
MOTION
Frames: 9
Frame Time: 0.03333333
0.340899 99.567520 11.463657 0.000000 0.000000 0.000000 3.878953 33.419009 -2.434572 -26.229957 5.848260 5.013945 23.307776 -29.989428 -4.635154 -3.791581 -9.391148 2.665677 -0.127537 -0.038762 -0.530141 0.000000 0.000000 0.000000 3.878953 33.419009 -2.434572 -16.440665 14.163026 0.193232 23.444471 16.528399 0.379517 -10.558043 2.461129 -0.257103 -0.651008 -0.037187 -0.032881 0.000000 0.000000 0.000000 3.878953 33.419009 -2.434572 7.023849 0.710618 -2.161562 1.194965 0.878376 1.356983 0.000000 0.000000 0.000000 0.000000 0.000000 0.000000 1.187239 1.042046 1.323507 -1.462648 26.897341 -8.295224 -8.065498 21.377963 -2.733279 0.000000 0.000000 0.000000 1.187239 1.042046 1.323507 -0.058171 -1.062261 -0.947435 0.000000 0.000000 0.000000 -58.784426 22.251327 -21.915960 10.922848 -76.738487 12.155609 0.000000 0.000000 0.000000 1.187239 1.042046 1.323507 4.825632 9.166180 6.762686 0.000000 0.000000 0.000000 11.896273 18.966978 61.061597 10.535353 22.100585 -4.963115 0.000000 0.000000 0.000000 
-1.213801 99.797928 12.280319 0.000000 0.000000 0.000000 4.328481 39.282819 -3.186732 -27.376301 6.382113 5.881839 22.265863 -38.712044 -5.327876 -4.603857 -4.412212 2.175189 -0.111911 -0.038829 -0.619491 0.000000 0.000000 0.000000 4.328481 39.282819 -3.186732 -15.196792 13.832868 1.043106 22.173386 11.432283 0.991080 -10.498234 1.589680 -0.931365 -0.760466 -0.032690 0.011433 0.000000 0.000000 0.000000 4.328481 39.282819 -3.186732 7.214245 0.403246 -2.650077 1.139007 0.472321 1.508123 0.000000 0.000000 0.000000 0.000000 0.000000 0.000000 1.129821 0.657999 1.495975 -1.497329 24.861774 -8.282025 -9.017808 19.238503 -1.161759 0.000000 0.000000 0.000000 1.129821 0.657999 1.495975 -0.098277 -4.304852 -0.130146 0.000000 0.000000 0.000000 -58.723453 20.289147 -23.609853 9.881867 -75.007088 11.444930 0.000000 0.000000 0.000000 1.129821 0.657999 1.495975 4.845229 8.887815 6.669461 0.000000 0.000000 0.000000 9.629283 15.060113 62.090272 10.941243 22.517797 -5.122146 0.000000 0.000000 0.000000 
-2.717358 99.887459 12.743149 0.000000 0.000000 0.000000 5.166125 43.556741 -4.453662 -28.483651 7.249446 8.168271 21.532277 -35.268112 -4.821494 -4.725422 -4.541205 -0.152443 -0.073166 -0.039230 -0.550339 0.000000 0.000000 0.000000 5.166125 43.556741 -4.453662 -15.295818 12.383423 2.450598 21.640394 9.111806 0.801124 -10.076159 0.610870 -1.542065 -0.759190 -0.032751 0.013642 0.000000 0.000000 0.000000 5.166125 43.556741 -4.453662 7.373141 0.351985 -2.903295 1.021575 0.402672 1.586730 0.000000 0.000000 0.000000 0.000000 0.000000 0.000000 1.011849 0.599493 1.577685 -1.918169 23.066292 -7.797573 -9.375050 17.512250 -0.237608 0.000000 0.000000 0.000000 1.011849 0.599493 1.577685 -0.156232 -7.215443 0.446553 0.000000 0.000000 0.000000 -58.915026 18.233868 -24.765122 9.439962 -73.554451 11.301877 0.000000 0.000000 0.000000 1.011849 0.599493 1.577685 4.849875 8.905628 6.467970 0.000000 0.000000 0.000000 7.348094 10.428503 62.949598 10.867240 23.018824 -5.002922 0.000000 0.000000 0.000000 
-4.090670 99.869980 12.883213 0.000000 0.000000 0.000000 5.756676 46.555160 -5.491560 -28.916429 7.965982 10.647567 20.411317 -28.717486 -3.927027 -3.742782 -4.032037 -2.859019 -0.020804 -0.039422 -0.450928 0.000000 0.000000 0.000000 5.756676 46.555160 -5.491560 -15.824756 11.017402 3.568287 21.561213 7.916790 0.701164 -9.613179 -0.196625 -2.049140 -0.757920 -0.032721 0.014716 0.000000 0.000000 0.000000 5.756676 46.555160 -5.491560 7.681581 0.435452 -3.190338 1.049336 0.499852 1.747551 0.000000 0.000000 0.000000 0.000000 0.000000 0.000000 1.036400 0.715976 1.731409 -2.695834 21.726931 -7.561743 -9.550585 16.092788 0.515012 0.000000 0.000000 0.000000 1.036400 0.715976 1.731409 -0.157364 -9.654409 0.935498 0.000000 0.000000 0.000000 -59.361249 16.081863 -25.708031 8.519170 -71.886143 10.635812 0.000000 0.000000 0.000000 1.036400 0.715976 1.731409 4.841307 9.119455 6.195296 0.000000 0.000000 0.000000 4.891784 5.437999 63.391450 10.370555 23.170889 -4.700240 0.000000 0.000000 0.000000 
-5.223987 99.798134 12.774994 0.000000 0.000000 0.000000 6.018387 49.303178 -6.043734 -30.168587 8.672746 12.415070 22.091369 -19.144455 -2.071634 -2.608034 -3.848806 -2.228374 0.041994 -0.039224 -0.328333 0.000000 0.000000 0.000000 6.018387 49.303178 -6.043734 -16.305162 9.790794 4.154941 21.893760 6.838584 0.610426 -9.382057 -0.866185 -2.295561 -0.756733 -0.032726 0.014875 0.000000 0.000000 0.000000 6.018387 49.303178 -6.043734 8.037436 0.363240 -3.613051 1.161795 0.388238 1.970583 0.000000 0.000000 0.000000 0.000000 0.000000 0.000000 1.148574 0.634444 1.959539 -3.182028 20.771398 -7.463676 -9.888900 15.057605 1.182304 0.000000 0.000000 0.000000 1.148574 0.634444 1.959539 -0.124633 -11.773971 1.358643 0.000000 0.000000 0.000000 -59.768260 14.470254 -26.379703 8.415364 -70.608925 10.726191 0.000000 0.000000 0.000000 1.148574 0.634444 1.959539 4.833052 9.369559 6.000833 0.000000 0.000000 0.000000 2.108120 0.315227 62.911739 10.017278 23.291748 -4.439877 0.000000 0.000000 0.000000 
-6.114519 99.697876 12.472973 0.000000 0.000000 0.000000 6.415796 52.298615 -6.447325 -31.048834 9.593151 13.596197 23.055088 -8.489588 -0.123729 -0.945551 -3.738417 -1.911124 0.110498 -0.038494 -0.193153 0.000000 0.000000 0.000000 6.415796 52.298615 -6.447325 -16.874510 8.721655 4.215225 22.551575 5.354211 0.487556 -9.428206 -1.420433 -2.211747 -0.755691 -0.032721 0.014350 0.000000 0.000000 0.000000 6.415796 52.298615 -6.447325 8.266526 0.089491 -4.119029 1.223777 0.029354 2.140599 0.000000 0.000000 0.000000 0.000000 0.000000 0.000000 1.218084 0.304243 2.150628 -3.266866 19.879522 -7.267265 -10.347889 14.202924 1.709262 0.000000 0.000000 0.000000 1.218084 0.304243 2.150628 -0.054606 -13.252363 1.655203 0.000000 0.000000 0.000000 -60.059254 12.860061 -27.275179 9.356464 -69.503151 11.687536 0.000000 0.000000 0.000000 1.218084 0.304243 2.150628 4.852114 9.252552 5.920751 0.000000 0.000000 0.000000 -1.005778 -5.061067 62.540217 9.195668 23.512026 -4.070552 0.000000 0.000000 0.000000 
-6.775734 99.579918 12.026150 0.000000 0.000000 0.000000 6.833714 55.183711 -6.878982 -31.448144 10.809341 14.772256 23.543992 0.614216 1.201346 0.767464 -3.733274 -1.583887 0.183436 -0.035699 -0.048123 0.000000 0.000000 0.000000 6.833714 55.183711 -6.878982 -17.380627 7.729431 4.095220 23.234236 5.233124 0.475323 -9.587741 -3.224011 -2.297678 -0.754862 -0.032709 0.013357 0.000000 0.000000 0.000000 6.833714 55.183711 -6.878982 8.449946 -0.182143 -4.518943 1.224371 -0.349199 2.349316 0.000000 0.000000 0.000000 0.000000 0.000000 0.000000 1.229376 -0.043665 2.382360 -3.033478 18.991630 -7.427802 -10.746937 13.253412 2.199308 0.000000 0.000000 0.000000 1.229376 -0.043665 2.382360 0.015860 -14.184525 1.825454 0.000000 0.000000 0.000000 -60.015814 11.410699 -28.572638 10.457588 -68.637848 12.723858 0.000000 0.000000 0.000000 1.229376 -0.043665 2.382360 4.897384 8.714439 5.739089 0.000000 0.000000 0.000000 -3.979045 -10.101400 62.290485 8.453114 23.863417 -3.823081 0.000000 0.000000 0.000000 
-7.225427 99.482658 11.429420 0.000000 0.000000 0.000000 7.136490 57.718227 -7.237368 -31.521432 12.227324 16.326336 23.691464 6.010656 1.265785 2.537890 -3.788236 -0.580781 0.256379 -0.032702 0.096761 0.000000 0.000000 0.000000 7.136490 57.718227 -7.237368 -17.695478 6.841609 3.744710 23.787473 4.269766 0.396992 -9.729235 -3.892652 -1.929222 -0.754313 -0.032712 0.012128 0.000000 0.000000 0.000000 7.136490 57.718227 -7.237368 8.587803 -0.391005 -4.776732 1.249034 -0.666362 2.565330 0.000000 0.000000 0.000000 0.000000 0.000000 0.000000 1.264399 -0.331875 2.617580 -2.702734 18.209976 -7.932536 -10.939555 12.289264 2.755584 0.000000 0.000000 0.000000 1.264399 -0.331875 2.617580 0.084335 -14.856758 1.935675 0.000000 0.000000 0.000000 -59.783048 10.198758 -30.019651 11.411441 -68.003126 13.601379 0.000000 0.000000 0.000000 1.264399 -0.331875 2.617580 4.938756 8.099794 5.492801 0.000000 0.000000 0.000000 -6.388080 -14.123335 62.174686 7.819500 23.987203 -3.589097 0.000000 0.000000 0.000000 
-7.444922 99.418633 10.664459 0.000000 0.000000 0.000000 7.281008 59.877714 -7.447178 -31.257575 13.469920 17.794427 23.786190 7.469258 0.447564 3.557087 -3.839613 0.407270 0.157362 -0.027535 -0.214160 0.000000 0.000000 0.000000 7.281008 59.877714 -7.447178 -17.777119 6.068621 3.166569 24.164678 3.501540 0.335975 -9.847959 -4.414196 -1.383240 -0.754093 -0.032710 0.010878 0.000000 0.000000 0.000000 7.281008 59.877714 -7.447178 8.672485 -0.538023 -4.900880 1.302370 -0.919994 2.777076 0.000000 0.000000 0.000000 0.000000 0.000000 0.000000 1.327788 -0.559251 2.844390 -2.711698 17.692516 -7.998696 -10.948377 11.735758 3.010031 0.000000 0.000000 0.000000 1.327788 -0.559251 2.844390 0.150344 -15.353574 2.004449 0.000000 0.000000 0.000000 -59.451961 9.165088 -31.519516 12.000560 -67.512397 14.128989 0.000000 0.000000 0.000000 1.327788 -0.559251 2.844390 4.971027 7.450000 5.201131 0.000000 0.000000 0.000000 -7.940822 -16.785641 62.299358 7.312294 23.838947 -3.379569 0.000000 0.000000 0.000000 
